<?xml version="1.0" encoding="iso-8859-1"?>
<!-- Uploaded to: SVG Repo, www.svgrepo.com, Generator: SVG Repo Mixer Tools -->
<svg fill="#000000" height="800px" width="800px" version="1.1" id="Layer_1" xmlns="http://www.w3.org/2000/svg" xmlns:xlink="http://www.w3.org/1999/xlink" 
	 viewBox="0 0 512 512" xml:space="preserve">
<g>
	<g>
		<path d="M256,78.694c-91.087,0-165.191,74.096-165.191,165.172c0,30.006,8.378,59.655,24.229,85.743
			c14.046,23.118,33.319,42.491,56.01,56.411v41.029C171.047,473.891,209.156,512,256,512s84.953-38.109,84.953-84.951v-40.331
			c48.96-30.097,80.239-85.373,80.239-142.851C421.191,152.79,347.087,78.694,256,78.694z M320.054,427.049
			c0.001,35.32-28.735,64.053-64.054,64.053s-64.055-28.734-64.055-64.053v-6.75h128.11V427.049z M192.839,399.401v-7.431h126.349
			v7.431H192.839z M326.365,371.071H186.853c-45.669-25.597-75.146-75.444-75.146-127.205c0-79.553,64.729-144.274,144.293-144.274
			s144.293,64.721,144.293,144.274C400.293,295.59,371.335,345.276,326.365,371.071z"/>
	</g>
</g>
<g>
	<g>
		<path d="M256,0c-5.771,0-10.449,4.679-10.449,10.449v43.895c0,5.77,4.678,10.449,10.449,10.449
			c5.771,0,10.449-4.679,10.449-10.449V10.449C266.449,4.679,261.771,0,256,0z"/>
	</g>
</g>
<g>
	<g>
		<path d="M130.39,102.045L99.339,71.007c-4.082-4.081-10.698-4.08-14.778,0.003c-4.079,4.081-4.078,10.697,0.003,14.777
			l31.051,31.039c2.041,2.04,4.715,3.058,7.387,3.058c2.675,0,5.35-1.021,7.391-3.063
			C134.472,112.74,134.471,106.125,130.39,102.045z"/>
	</g>
</g>
<g>
	<g>
		<path d="M427.438,71.008c-4.08-4.078-10.697-4.079-14.777,0l-31.04,31.039c-4.08,4.08-4.081,10.697,0,14.778
			c2.041,2.04,4.715,3.06,7.388,3.06s5.349-1.021,7.388-3.06l31.04-31.039C431.518,81.705,431.519,75.088,427.438,71.008z"/>
	</g>
</g>
<g>
	<g>
		<path d="M266.577,237.251v-11.033c0-5.77-4.678-10.449-10.449-10.449c-5.771,0-10.449,4.679-10.449,10.449v7.545
			c-8.686-3.978-14.738-12.747-14.738-22.909c0-10.162,6.052-18.93,14.738-22.908v10.236c0,5.771,4.678,10.45,10.449,10.45
			c5.771,0,10.449-4.679,10.449-10.449v-10.236c8.686,3.978,14.739,12.747,14.739,22.908c0,5.77,4.678,10.449,10.449,10.449
			s10.449-4.679,10.449-10.449c0-21.816-15.244-40.128-35.637-44.875v-5.575c0-5.77-4.678-10.449-10.449-10.449
			c-5.771,0-10.449,4.679-10.449,10.449v5.575c-20.392,4.748-35.636,23.059-35.636,44.875c0,21.818,15.244,40.129,35.636,44.876
			v49.305c-8.686-3.978-14.738-12.747-14.738-22.909c0-5.77-4.678-10.449-10.449-10.449c-5.771,0-10.449,4.679-10.449,10.449
			c0,21.857,15.302,40.197,35.751,44.902c0.715,5.074,5.063,8.983,10.334,8.983c5.271,0,9.619-3.908,10.334-8.983
			c20.451-4.705,35.752-23.045,35.752-44.903C302.214,260.309,286.97,241.998,266.577,237.251z M266.577,305.036v-45.817
			c8.686,3.977,14.739,12.746,14.739,22.907C281.316,292.288,275.263,301.058,266.577,305.036z"/>
	</g>
</g>
</svg>