<?xml version="1.0" encoding="UTF-8" standalone="no"?>
<svg
   xmlns:dc="http://purl.org/dc/elements/1.1/"
   xmlns:cc="http://creativecommons.org/ns#"
   xmlns:rdf="http://www.w3.org/1999/02/22-rdf-syntax-ns#"
   xmlns:svg="http://www.w3.org/2000/svg"
   xmlns="http://www.w3.org/2000/svg"
   viewBox="0 0 188.65334 109.38667"
   height="109.38667"
   width="188.65334"
   xml:space="preserve"
   id="svg2"
   version="1.1"><metadata
     id="metadata8"><rdf:RDF><cc:Work
         rdf:about=""><dc:format>image/svg+xml</dc:format><dc:type
           rdf:resource="http://purl.org/dc/dcmitype/StillImage" /></cc:Work></rdf:RDF></metadata><defs
     id="defs6" /><g
     transform="matrix(1.3333333,0,0,-1.3333333,0,109.38667)"
     id="g10"><g
       transform="scale(0.1)"
       id="g12"><path
         id="path14"
         style="fill:#231f20;fill-opacity:1;fill-rule:nonzero;stroke:none"
         d="m 177.852,396.836 c -0.293,2.488 -1.192,12.656 -11.661,12.656 -11.472,0 -16.269,-11.972 -16.269,-26.836 0,-4.297 0,-24.726 15.078,-24.726 6.477,0 12.664,4.082 12.961,13.652 h 16.258 c -0.293,-4.297 -0.684,-10.977 -6.485,-16.953 -6.386,-6.582 -14.464,-8.086 -21.046,-8.086 -24.84,0 -32.918,18.359 -32.918,36.211 0,22.851 12.761,38.019 33.007,38.019 15.774,0 26.844,-9.582 26.844,-23.937 h -15.769" /><path
         id="path16"
         style="fill:#231f20;fill-opacity:1;fill-rule:nonzero;stroke:none"
         d="m 239.641,378.965 c 0,2.305 -0.207,11.289 -8.789,11.289 -6.477,0 -9.172,-5.391 -9.465,-11.289 z m -18.75,-9.277 c 0,-3.282 0,-13.458 10.269,-13.458 3.695,0 7.375,1.387 8.781,6.973 h 13.457 c -0.195,-2.383 -0.695,-6.68 -4.777,-10.976 -3.699,-3.887 -10.281,-5.879 -17.664,-5.879 -4.297,0 -12.461,0.8 -17.754,6.289 -4.59,4.785 -6.484,11.562 -6.484,19.648 0,8.184 1.98,17.969 10.476,23.848 3.879,2.597 8.672,4.18 14.16,4.18 7.18,0 15.762,-2.793 20.344,-12.157 3.399,-6.886 3.203,-14.269 2.996,-18.468 h -33.804" /><path
         id="path18"
         style="fill:#231f20;fill-opacity:1;fill-rule:nonzero;stroke:none"
         d="m 272.102,386.25 c 0,2.402 -0.403,9.688 -0.715,12.578 h 13.879 l 0.293,-9.676 c 1.902,4.286 5.195,10.379 17.168,9.774 v -13.281 c -14.973,1.406 -15.872,-6.27 -15.872,-12.559 v -24.844 h -14.753 v 38.008" /><path
         id="path20"
         style="fill:#231f20;fill-opacity:1;fill-rule:nonzero;stroke:none"
         d="m 348.152,348.945 c -4.785,-1.308 -9.082,-1.601 -11.464,-1.601 -14.864,0 -14.864,9.375 -14.864,13.574 v 27.637 h -9.676 v 9.773 h 9.676 v 9.875 l 14.668,5.391 v -15.266 h 11.965 v -9.773 h -11.965 v -22.754 c 0.09,-4.59 0.09,-7.481 6.684,-7.481 2.195,0 3.179,0.098 4.976,0.293 v -9.668" /><path
         id="path22"
         style="fill:#231f20;fill-opacity:1;fill-rule:nonzero;stroke:none"
         d="m 364.98,398.73 h 14.766 V 348.242 H 364.98 Z m -0.5,21.543 h 15.762 V 407.402 H 364.48 v 12.871" /><path
         id="path24"
         style="fill:#231f20;fill-opacity:1;fill-rule:nonzero;stroke:none"
         d="m 401.348,388.156 h -7.481 v 10.465 h 7.481 v 6.887 c 0,8.887 2.988,16.055 17.375,16.055 0.984,0 3.789,0 7.976,-0.489 v -10.273 c -1.504,0.195 -1.902,0.293 -3.094,0.293 -7.589,0 -7.589,-3.985 -7.589,-6.582 v -5.891 h 9.382 v -10.465 h -9.382 v -39.914 h -14.668 v 39.914" /><path
         id="path26"
         style="fill:#231f20;fill-opacity:1;fill-rule:nonzero;stroke:none"
         d="m 440.723,398.73 h 14.757 v -50.488 h -14.757 z m -0.508,21.543 h 15.762 v -12.871 h -15.762 v 12.871" /><path
         id="path28"
         style="fill:#231f20;fill-opacity:1;fill-rule:nonzero;stroke:none"
         d="m 504.734,378.965 c 0,2.305 -0.214,11.289 -8.789,11.289 -6.472,0 -9.175,-5.391 -9.468,-11.289 z m -18.757,-9.277 c 0,-3.282 0,-13.458 10.273,-13.458 3.691,0 7.371,1.387 8.777,6.973 h 13.457 c -0.183,-2.383 -0.691,-6.68 -4.773,-10.976 -3.699,-3.887 -10.273,-5.879 -17.664,-5.879 -4.289,0 -12.473,0.8 -17.754,6.289 -4.582,4.785 -6.484,11.562 -6.484,19.648 0,8.184 1.992,17.969 10.476,23.848 3.887,2.597 8.672,4.18 14.16,4.18 7.176,0 15.762,-2.793 20.352,-12.157 3.391,-6.886 3.191,-14.269 2.988,-18.468 h -33.808" /><path
         id="path30"
         style="fill:#231f20;fill-opacity:1;fill-rule:nonzero;stroke:none"
         d="m 559.238,356.816 c 4.285,0 7.782,2.598 9.375,5.684 2.2,4.199 2.383,9.395 2.383,11.875 0,9.883 -4.285,15.273 -10.969,15.273 -9.882,0 -10.964,-11.875 -10.964,-16.972 0,-8.36 2.785,-15.86 10.175,-15.86 z m 11.258,63.457 h 14.887 v -63.847 c 0,-2.988 0.183,-6.289 0.398,-8.184 h -14.968 l -0.403,7.285 c -1.008,-1.797 -2.004,-3.691 -5.09,-5.683 -3.699,-2.403 -7.586,-2.598 -9.773,-2.598 -13.477,0 -21.453,9.277 -21.453,25.039 0,16.66 9.082,27.039 22.254,27.039 9.062,0 12.871,-5.086 14.148,-6.883 v 27.832" /><path
         id="path32"
         style="fill:#231f20;fill-opacity:1;fill-rule:nonzero;stroke:none"
         d="m 648.438,387.754 h 6.171 c 5,0 14.278,0 14.278,10.976 0,9.778 -8.289,9.778 -12.664,9.778 h -7.785 z m -15.262,32.422 h 22.246 c 10.371,0 19.051,-0.703 25.039,-7.879 3.785,-4.582 4.383,-9.777 4.383,-13.469 0,-8.379 -3.489,-15.469 -9.18,-19.16 -5.293,-3.398 -12.578,-3.398 -16.367,-3.398 h -10.469 v -28.028 h -15.652 v 71.934" /><path
         id="path34"
         style="fill:#231f20;fill-opacity:1;fill-rule:nonzero;stroke:none"
         d="m 701.73,386.25 c 0,2.402 -0.402,9.688 -0.714,12.578 h 13.879 l 0.293,-9.676 c 1.89,4.286 5.195,10.379 17.167,9.774 v -13.281 c -14.984,1.406 -15.878,-6.27 -15.878,-12.559 V 348.242 H 701.73 v 38.008" /><path
         id="path36"
         style="fill:#231f20;fill-opacity:1;fill-rule:nonzero;stroke:none"
         d="m 769.617,356.719 c 6.488,0 10.879,3.886 10.879,17.265 0,6.68 -1.308,15.957 -11.07,15.957 -10.781,0 -10.879,-12.461 -10.879,-17.05 0,-11.289 3.789,-16.172 11.07,-16.172 z m -0.191,43.105 c 18.242,0 26.133,-12.363 26.133,-26.445 0,-14.16 -8.188,-26.934 -26.426,-26.934 -14.375,0 -25.766,8.887 -25.766,26.543 0,12.168 6.211,26.836 26.059,26.836" /><path
         id="path38"
         style="fill:#231f20;fill-opacity:1;fill-rule:nonzero;stroke:none"
         d="m 815.227,388.156 h -7.485 v 10.465 h 7.485 v 6.887 c 0,8.887 2.988,16.055 17.363,16.055 0.996,0 3.789,0 7.984,-0.489 v -10.273 c -1.504,0.195 -1.914,0.293 -3.101,0.293 -7.578,0 -7.578,-3.985 -7.578,-6.582 v -5.891 h 9.375 v -10.465 h -9.375 v -39.914 h -14.668 v 39.914" /><path
         id="path40"
         style="fill:#231f20;fill-opacity:1;fill-rule:nonzero;stroke:none"
         d="m 881.746,378.965 c 0,2.305 -0.215,11.289 -8.785,11.289 -6.484,0 -9.184,-5.391 -9.477,-11.289 z m -18.766,-9.277 c 0,-3.282 0,-13.458 10.274,-13.458 3.687,0 7.383,1.387 8.789,6.973 h 13.453 c -0.191,-2.383 -0.683,-6.68 -4.781,-10.976 -3.695,-3.887 -10.277,-5.879 -17.656,-5.879 -4.297,0 -12.461,0.8 -17.754,6.289 -4.59,4.785 -6.489,11.562 -6.489,19.648 0,8.184 1.997,17.969 10.493,23.848 3.867,2.597 8.652,4.18 14.136,4.18 7.192,0 15.766,-2.793 20.356,-12.157 3.394,-6.886 3.203,-14.269 2.984,-18.468 H 862.98" /><path
         id="path42"
         style="fill:#231f20;fill-opacity:1;fill-rule:nonzero;stroke:none"
         d="m 924.48,362.813 c 0.176,-3.204 2.168,-6.895 8.364,-6.895 5.293,0 7.793,3.008 7.793,5.996 0,2.285 -1.211,4.082 -6.992,5.684 l -9.165,2.5 c -4.097,1.191 -12.769,3.691 -12.769,13.965 0,9.777 8.98,15.761 22.027,15.761 10.371,0 18.774,-4.785 19.16,-14.863 h -13.472 c -0.395,5.586 -4.883,5.977 -7.192,5.977 -3.964,0 -6.968,-1.895 -6.968,-4.981 0,-3.398 2.5,-4.102 6.89,-5.293 l 9.067,-2.5 c 9.199,-2.48 13.472,-7.168 13.472,-14.062 0,-8.672 -7.476,-17.364 -23.14,-17.364 -6.489,0 -12.676,1.407 -17.246,6.192 -3.301,3.496 -3.618,7.48 -3.711,9.883 h 13.882" /><path
         id="path44"
         style="fill:#231f20;fill-opacity:1;fill-rule:nonzero;stroke:none"
         d="m 981.98,362.813 c 0.2,-3.204 2.192,-6.895 8.379,-6.895 5.293,0 7.793,3.008 7.793,5.996 0,2.285 -1.211,4.082 -6.992,5.684 l -9.18,2.5 c -4.097,1.191 -12.769,3.691 -12.769,13.965 0,9.777 8.98,15.761 22.051,15.761 10.368,0 18.748,-4.785 19.158,-14.863 h -13.479 c -0.41,5.586 -4.878,5.977 -7.183,5.977 -3.988,0 -6.977,-1.895 -6.977,-4.981 0,-3.398 2.485,-4.102 6.875,-5.293 l 9.082,-2.5 c 9.182,-2.48 13.482,-7.168 13.482,-14.062 0,-8.672 -7.5,-17.364 -23.15,-17.364 -6.504,0 -12.675,1.407 -17.261,6.192 -3.301,3.496 -3.594,7.48 -3.696,9.883 h 13.867" /><path
         id="path46"
         style="fill:#231f20;fill-opacity:1;fill-rule:nonzero;stroke:none"
         d="m 1029.21,398.73 h 14.75 v -50.488 h -14.75 z m -0.51,21.543 h 15.76 v -12.871 h -15.76 v 12.871" /><path
         id="path48"
         style="fill:#231f20;fill-opacity:1;fill-rule:nonzero;stroke:none"
         d="m 1088.53,356.719 c 6.46,0 10.85,3.886 10.85,17.265 0,6.68 -1.28,15.957 -11.07,15.957 -10.76,0 -10.86,-12.461 -10.86,-17.05 0,-11.289 3.79,-16.172 11.08,-16.172 z m -0.22,43.105 c 18.26,0 26.15,-12.363 26.15,-26.445 0,-14.16 -8.18,-26.934 -26.44,-26.934 -14.38,0 -25.74,8.887 -25.74,26.543 0,12.168 6.19,26.836 26.03,26.836" /><path
         id="path50"
         style="fill:#231f20;fill-opacity:1;fill-rule:nonzero;stroke:none"
         d="m 1133.33,389.648 c 0,0.196 0,5.684 -0.29,9.18 h 14.18 l 0.39,-7.578 c 1.38,2.285 5.39,8.77 16.36,8.77 9.87,0 14.07,-5.977 15.36,-9.473 1.11,-3.086 1.4,-5.684 1.4,-15.078 v -27.227 h -15.08 v 31.328 c 0,2.09 0,3.887 -0.78,5.489 -1.09,2.199 -3.4,4.296 -7.18,4.296 -3.19,0 -6.1,-1.503 -7.68,-3.906 -0.9,-1.289 -1.82,-3.789 -1.82,-7.676 v -29.531 h -14.86 v 41.406" /><path
         id="path52"
         style="fill:#231f20;fill-opacity:1;fill-rule:nonzero;stroke:none"
         d="m 1213.78,363.809 c 0,-3.399 2.3,-7.188 7.19,-7.188 2.69,0 4.88,1.309 6.29,2.891 2.59,3.203 2.79,7.09 2.79,12.48 -9.49,0.801 -16.27,-2.207 -16.27,-8.183 z m 18.16,-15.567 c -0.5,3.086 -0.5,5.391 -0.5,6.895 -5.59,-8.086 -12.27,-8.086 -15.06,-8.086 -7.29,0 -10.59,2.09 -12.56,3.984 -3.01,2.988 -4.4,7.09 -4.4,11.074 0,3.985 1.39,11.368 10.67,15.664 6.19,2.793 15.08,2.793 19.96,2.793 0,3.301 -0.12,4.883 -0.7,6.692 -1.29,3.68 -5.2,4.187 -6.59,4.187 -2.09,0 -4.29,-0.898 -5.58,-2.793 -1.1,-1.699 -1.1,-3.3 -1.1,-4.492 h -14.47 c 0.1,2.695 0.39,8.086 5.7,11.875 4.57,3.289 10.47,4.082 15.26,4.082 4.18,0 12.97,-0.683 17.97,-6.484 3.38,-4.082 3.47,-10.078 3.47,-12.363 l 0.1,-20.254 c 0,-4.297 0.29,-8.594 1.19,-12.774 h -13.36" /><path
         id="path54"
         style="fill:#231f20;fill-opacity:1;fill-rule:nonzero;stroke:none"
         d="m 1264.79,420.371 h 14.77 v -72.129 h -14.77 v 72.129" /><path
         id="path56"
         style="fill:#000000;fill-opacity:1;fill-rule:nonzero;stroke:none"
         d="m 562.012,602.902 h 65.5 L 592.898,658.77 529.363,557.93 h -29.004 l 77.356,121.008 c 3.262,4.949 8.957,7.886 15.137,7.886 6.035,0 11.613,-2.898 14.953,-7.652 L 685.352,557.93 h -28.914 l -13.696,22.55 h -66.324 l -14.406,22.422" /><path
         id="path58"
         style="fill:#000000;fill-opacity:1;fill-rule:nonzero;stroke:none"
         d="M 862.488,580.48 V 685.574 H 837.883 V 570.109 c 0,-3.125 1.305,-6.222 3.633,-8.437 2.339,-2.414 5.586,-3.742 8.922,-3.742 h 111.875 l 14.613,22.55 H 862.488" /><path
         id="path60"
         style="fill:#000000;fill-opacity:1;fill-rule:nonzero;stroke:none"
         d="m 456.379,599.238 c 23.887,0 43.125,19.356 43.125,43.164 0,23.899 -19.238,43.172 -43.125,43.172 H 348.918 V 557.93 h 24.578 v 105.117 h 81.231 c 11.394,0 20.632,-9.199 20.632,-20.645 0,-11.367 -9.238,-20.691 -20.632,-20.691 l -69.247,0.059 73.297,-63.84 h 35.649 l -49.258,41.308 h 11.211" /><path
         id="path62"
         style="fill:#000000;fill-opacity:1;fill-rule:nonzero;stroke:none"
         d="m 270.391,580.371 c 22.898,0 41.394,18.574 41.394,41.34 0,22.867 -18.496,41.336 -41.394,41.336 h -70.86 c -22.82,0 -41.277,-18.469 -41.277,-41.336 0,-22.766 18.457,-41.34 41.277,-41.34 h 70.86 M 197.922,557.93 c -35.293,0 -63.867,28.554 -63.867,63.781 0,35.32 28.574,63.863 63.867,63.863 h 74.195 c 35.332,0 63.789,-28.543 63.789,-63.863 0,-35.227 -28.457,-63.781 -63.789,-63.781 h -74.195" /><path
         id="path64"
         style="fill:#000000;fill-opacity:1;fill-rule:nonzero;stroke:none"
         d="m 736.594,557.93 c -35.254,0 -63.949,28.554 -63.949,63.781 0,35.32 28.695,63.863 63.949,63.863 h 88.203 l -14.555,-22.527 h -71.929 c -22.954,0 -41.399,-18.469 -41.399,-41.336 0,-22.766 18.445,-41.34 41.399,-41.34 h 88.375 L 812.355,557.93 h -75.761" /><path
         id="path66"
         style="fill:#000000;fill-opacity:1;fill-rule:nonzero;stroke:none"
         d="m 1036.79,580.371 c -18.89,0 -34.83,12.734 -39.712,30.07 h 104.862 l 14.48,22.539 H 997.078 c 4.882,17.372 20.822,30.067 39.712,30.067 h 72.07 l 14.37,22.527 h -88.02 c -35.237,0 -63.855,-28.543 -63.855,-63.863 0,-35.227 28.618,-63.781 63.855,-63.781 h 75.74 l 14.37,22.441 h -88.53" /><path
         id="path68"
         style="fill:#000000;fill-opacity:1;fill-rule:nonzero;stroke:none"
         d="m 1147.53,673.176 c 0.98,0 1.97,0.078 2.6,1.015 0.43,0.387 0.47,0.86 0.47,1.383 0,0.879 -0.49,1.574 -1.25,1.906 -0.84,0.422 -1.43,0.422 -2.95,0.422 h -0.84 v -4.726 h 1.97 m -1.13,7.265 c 2.11,0 3.1,-0.078 4.23,-0.39 2.8,-0.957 3.05,-3.598 3.05,-4.477 0,-0.23 -0.08,-0.777 -0.14,-1.383 -0.17,-0.605 -0.52,-1.886 -1.97,-2.753 -0.17,-0.137 -0.29,-0.239 -0.66,-0.422 l 3.67,-6.641 h -3.55 l -3.34,6.223 h -2.13 v -6.223 h -3.23 v 16.066 h 4.07 m 1.36,-22.843 c 8.01,0 14.3,6.367 14.3,14.289 0,7.937 -6.29,14.433 -14.3,14.433 -7.98,0 -14.35,-6.496 -14.35,-14.433 0,-7.922 6.37,-14.289 14.35,-14.289 m -11.36,14.336 c 0,6.261 5.04,11.32 11.36,11.32 6.27,0 11.31,-5.059 11.31,-11.32 0,-6.2 -5.04,-11.231 -11.31,-11.231 -6.32,0 -11.36,5.031 -11.36,11.231" /><path
         id="path70"
         style="fill:#231f20;fill-opacity:1;fill-rule:nonzero;stroke:none"
         d="m 134.336,485.957 v 5.703 H 1285.17 v -5.703 H 134.336 v 0" /><path
         id="path72"
         style="fill:#231f20;fill-opacity:1;fill-rule:nonzero;stroke:none"
         d="m 134.336,268.965 v 15.937 H 1285.17 V 268.965 H 134.336 v 0" /><path
         id="path74"
         style="fill:#231f20;fill-opacity:1;fill-rule:nonzero;stroke:none"
         d="m 140.48,152.676 c 0.094,-2.5 0.094,-5.586 1.59,-7.871 1.192,-1.895 4.192,-4.383 9.27,-4.383 4.082,0 7.871,1.687 9.961,5.074 1.695,2.895 1.695,7.473 1.695,9.672 v 49.91 h 9.965 V 152.48 c 0,-13.261 -10.461,-20.429 -22.316,-20.429 -3.79,0 -12.161,0.898 -17.137,7.472 -3.391,4.579 -3.598,10.262 -3.598,13.153 h 10.57" /><path
         id="path76"
         style="fill:#231f20;fill-opacity:1;fill-rule:nonzero;stroke:none"
         d="m 217.012,157.754 c -3.789,0 -18.035,0 -18.035,-10.156 0,-3.192 1.992,-8.672 10.359,-8.672 4.785,0 8.367,1.894 10.664,5.383 2.09,3.386 2.188,6.179 2.395,13.152 -1.704,0.195 -3.098,0.293 -5.383,0.293 z m 6.472,-24.609 c -0.691,2.492 -0.894,4.882 -0.894,7.472 -4.485,-8.273 -11.262,-9.062 -15.442,-9.062 -11.464,0 -17.636,6.472 -17.636,14.746 0,3.984 1.394,10.359 8.769,14.637 5.379,3 13.352,3.3 17.332,3.3 2.395,0 3.891,-0.105 6.782,-0.3 0,6.179 0,8.867 -1.797,11.062 -1.899,2.48 -5.981,3.281 -8.672,3.281 -9.465,0 -9.961,-6.472 -10.063,-8.465 H 192.5 c 0.293,2.586 0.598,6.075 3.484,9.461 3.789,4.18 10.864,5.383 16.145,5.383 7.273,0 15.051,-2.297 17.734,-7.375 1.59,-2.988 1.692,-5.379 1.692,-7.676 l -0.395,-23.906 c 0,-0.801 0.102,-7.48 0.793,-12.558 h -8.469" /><path
         id="path78"
         style="fill:#231f20;fill-opacity:1;fill-rule:nonzero;stroke:none"
         d="m 243.816,183.164 h 10.469 l 15.942,-39.656 15.543,39.656 h 10.363 l -21.922,-50.019 h -9.465 l -20.93,50.019" /><path
         id="path80"
         style="fill:#231f20;fill-opacity:1;fill-rule:nonzero;stroke:none"
         d="m 333.816,157.754 c -3.789,0 -18.035,0 -18.035,-10.156 0,-3.192 1.992,-8.672 10.364,-8.672 4.785,0 8.367,1.894 10.664,5.383 2.086,3.386 2.183,6.179 2.39,13.152 -1.699,0.195 -3.086,0.293 -5.383,0.293 z m 6.477,-24.609 c -0.691,2.492 -0.898,4.882 -0.898,7.472 -4.485,-8.273 -11.258,-9.062 -15.442,-9.062 -11.465,0 -17.637,6.472 -17.637,14.746 0,3.984 1.399,10.359 8.774,14.637 5.379,3 13.348,3.3 17.332,3.3 2.391,0 3.887,-0.105 6.777,-0.3 0,6.179 0,8.867 -1.797,11.062 -1.894,2.48 -5.976,3.281 -8.672,3.281 -9.46,0 -9.96,-6.472 -10.058,-8.465 h -9.363 c 0.293,2.586 0.593,6.075 3.484,9.461 3.789,4.18 10.859,5.383 16.145,5.383 7.273,0 15.046,-2.297 17.734,-7.375 1.59,-2.988 1.687,-5.379 1.687,-7.676 l -0.39,-23.906 c 0,-0.801 0.097,-7.48 0.793,-12.558 h -8.469" /><path
         id="path82"
         style="fill:#231f20;fill-opacity:1;fill-rule:nonzero;stroke:none"
         d="m 406.074,154.172 c 0.196,-4.992 0.789,-14.25 17.332,-14.25 14.946,0 16.836,9.258 16.836,12.851 0,8.067 -6.472,9.668 -16.543,12.161 -10.957,2.683 -15.84,3.875 -19.519,6.375 -5.879,3.984 -7.481,9.367 -7.481,14.14 0,14.649 13.86,21.035 27.403,21.035 4.785,0 14.453,-0.8 20.234,-7.078 3.984,-4.386 4.18,-9.269 4.375,-12.258 h -10.359 c -0.5,8.965 -8.071,10.957 -15.149,10.957 -9.961,0 -15.937,-4.472 -15.937,-11.66 0,-6.367 4.179,-8.562 12.949,-10.652 17.14,-4.387 19.031,-4.785 23.223,-7.57 6.667,-4.395 7.167,-11.368 7.167,-14.356 0,-12.754 -9.96,-22.422 -28.398,-22.422 -5.477,0 -16.641,0.899 -22.312,8.172 -4.082,5.285 -4.192,11.067 -4.192,14.555 h 10.371" /><path
         id="path84"
         style="fill:#231f20;fill-opacity:1;fill-rule:nonzero;stroke:none"
         d="m 467.156,205.078 h 45.141 v -8.457 h -35.168 v -22.422 h 33.476 v -8.379 h -33.476 v -23.906 h 35.969 v -8.769 h -45.942 v 71.933" /><path
         id="path86"
         style="fill:#231f20;fill-opacity:1;fill-rule:nonzero;stroke:none"
         d="m 596.316,154.863 c 0,4.883 -1.394,15.352 -12.847,15.352 -9.27,0 -13.75,-7.578 -13.75,-15.449 0,-8.965 5.574,-15.547 13.25,-15.547 6.172,0 13.347,4.394 13.347,15.644 z m -1.589,30.891 c -0.11,8.074 -6.082,10.262 -10.469,10.262 -9.961,0 -14.348,-8.575 -15.242,-26.895 2.195,3.184 5.972,8.762 16.043,8.762 11.257,0 20.82,-7.473 20.82,-22.121 0,-16.035 -11.453,-24.11 -23.313,-24.11 -6.675,0 -13.347,2.684 -17.039,7.469 -5.078,6.777 -6.281,16.641 -6.281,25.41 0,15.039 3.692,38.965 25.512,38.965 9.07,0 14.148,-3.984 16.543,-6.582 3.484,-4.082 3.582,-8.476 3.687,-11.16 h -10.261" /><path
         id="path88"
         style="fill:#231f20;fill-opacity:1;fill-rule:nonzero;stroke:none"
         d="m 661.992,173.496 h 11.856 c 6.582,0 16.64,0.508 16.64,12.258 0,11.258 -9.367,11.258 -14.543,11.258 h -13.953 z m -9.961,31.582 h 24.114 c 8.765,0 14.746,-0.488 19.625,-5.769 3.585,-3.684 5.285,-8.567 5.285,-13.957 0,-5.469 -1.797,-10.157 -5.684,-14.043 -3.777,-3.789 -8.769,-6.18 -21.719,-6.18 h -11.66 v -31.984 h -9.961 v 71.933" /><path
         id="path90"
         style="fill:#231f20;fill-opacity:1;fill-rule:nonzero;stroke:none"
         d="m 714.426,172.996 c 0,3.391 -0.207,6.887 -0.5,10.168 h 9.465 l 0.203,-9.668 c 1.789,6.973 7.761,9.27 11.953,9.863 2.793,0.403 4.883,0.301 6.473,0.207 v -9.171 c -0.497,0.195 -1.09,0.293 -1.786,0.402 -0.703,0.098 -1.601,0.098 -2.695,0.098 -11.062,0 -13.652,-6.575 -13.652,-15.149 v -26.601 h -9.461 v 39.851" /><path
         id="path92"
         style="fill:#231f20;fill-opacity:1;fill-rule:nonzero;stroke:none"
         d="m 776.797,138.43 c 7.07,0 15.144,5.078 15.144,20.125 0,12.453 -5.781,19.023 -14.546,19.023 -5.977,0 -15.649,-3.777 -15.649,-19.422 0,-10.265 4.387,-19.726 15.051,-19.726 z m 0.598,46.023 c 20.027,0 24.507,-15.742 24.507,-26.199 0,-14.641 -8.269,-26.809 -25.3,-26.809 -16.543,0 -24.622,11.465 -24.622,26.114 0,12.351 5.786,26.894 25.415,26.894" /><path
         id="path94"
         style="fill:#231f20;fill-opacity:1;fill-rule:nonzero;stroke:none"
         d="m 850.352,145.996 c 1.992,2.598 3.386,5.285 3.386,14.356 0,6.269 -1.394,9.863 -3.883,12.453 -2.492,2.683 -6.488,4.383 -10.761,4.383 -11.86,0 -13.457,-11.954 -13.457,-18.34 0,-7.664 2.293,-17.832 13.75,-17.832 5.476,0 8.672,1.992 10.965,4.98 z m -21.829,-16.738 c 0.403,-5.586 2.793,-9.766 11.665,-9.766 13.054,0 13.25,9.473 13.25,23.02 -3.985,-8.274 -13.45,-8.469 -16.446,-8.469 -4.582,0 -11.152,0.996 -15.344,6.172 -4.285,5.09 -5.671,11.758 -5.671,18.437 0,16.934 9.961,25.215 22.214,25.215 10.063,0 13.75,-4.988 15.747,-7.578 l 0.093,6.875 h 9.074 l -0.207,-9.062 -0.093,-31.289 c 0,-12.059 -0.403,-16.946 -2.395,-20.723 -4.18,-7.977 -13.945,-8.973 -20.82,-8.973 -20.027,0 -20.625,9.363 -21.027,16.141 h 9.96" /><path
         id="path96"
         style="fill:#231f20;fill-opacity:1;fill-rule:nonzero;stroke:none"
         d="m 883.938,172.996 c 0,3.391 -0.208,6.887 -0.5,10.168 h 9.46 l 0.207,-9.668 c 1.79,6.973 7.762,9.27 11.954,9.863 2.793,0.403 4.882,0.301 6.472,0.207 v -9.171 c -0.496,0.195 -1.093,0.293 -1.785,0.402 -0.703,0.098 -1.601,0.098 -2.695,0.098 -11.067,0 -13.653,-6.575 -13.653,-15.149 v -26.601 h -9.46 v 39.851" /><path
         id="path98"
         style="fill:#231f20;fill-opacity:1;fill-rule:nonzero;stroke:none"
         d="m 949.211,157.754 c -3.789,0 -18.039,0 -18.039,-10.156 0,-3.192 1.992,-8.672 10.359,-8.672 4.785,0 8.371,1.894 10.664,5.383 2.09,3.386 2.192,6.179 2.395,13.152 -1.699,0.195 -3.086,0.293 -5.379,0.293 z m 6.473,-24.609 c -0.696,2.492 -0.899,4.882 -0.899,7.472 -4.48,-8.273 -11.262,-9.062 -15.437,-9.062 -11.465,0 -17.637,6.472 -17.637,14.746 0,3.984 1.394,10.359 8.769,14.637 5.379,3 13.348,3.3 17.333,3.3 2.39,0 3.886,-0.105 6.777,-0.3 0,6.179 0,8.867 -1.797,11.062 -1.895,2.48 -5.977,3.281 -8.672,3.281 -9.465,0 -9.961,-6.472 -10.058,-8.465 h -9.368 c 0.293,2.586 0.598,6.075 3.489,9.461 3.789,4.18 10.859,5.383 16.14,5.383 7.278,0 15.051,-2.297 17.739,-7.375 1.589,-2.988 1.687,-5.379 1.687,-7.676 l -0.391,-23.906 c 0,-0.801 0.098,-7.48 0.789,-12.558 h -8.464" /><path
         id="path100"
         style="fill:#231f20;fill-opacity:1;fill-rule:nonzero;stroke:none"
         d="m 983.496,176.484 -0.203,6.68 h 9.473 v -7.273 c 4.773,7.871 11.554,8.562 15.834,8.562 11.06,0 14.55,-5.672 16.34,-9.355 1.7,2.785 5.78,9.355 16.84,9.355 7.18,0 18.34,-2.988 18.34,-17.734 v -33.574 h -9.47 v 32.089 c 0,4.375 -0.8,6.27 -1.69,7.571 -1.6,2.293 -4.79,4.383 -9.57,4.383 -6.08,0 -9.36,-3.497 -10.66,-5.282 -2.2,-3.097 -2.2,-8.566 -2.2,-10.761 v -28 h -9.46 v 33.085 c 0,6.172 -3.58,10.958 -10.96,10.958 -6.376,0 -9.86,-3.985 -10.965,-5.489 -2.086,-2.89 -2.184,-6.972 -2.184,-10.156 v -28.398 h -9.465 v 43.339" /><path
         id="path102"
         style="fill:#231f20;fill-opacity:1;fill-rule:nonzero;stroke:none"
         d="m 1080.57,176.484 -0.21,6.68 h 9.47 v -7.273 c 4.78,7.871 11.56,8.562 15.84,8.562 11.06,0 14.55,-5.672 16.34,-9.355 1.7,2.785 5.78,9.355 16.84,9.355 7.18,0 18.34,-2.988 18.34,-17.734 v -33.574 h -9.47 v 32.089 c 0,4.375 -0.8,6.27 -1.69,7.571 -1.6,2.293 -4.79,4.383 -9.57,4.383 -6.08,0 -9.36,-3.497 -10.66,-5.282 -2.2,-3.097 -2.2,-8.566 -2.2,-10.761 v -28 h -9.46 v 33.085 c 0,6.172 -3.58,10.958 -10.96,10.958 -6.37,0 -9.86,-3.985 -10.96,-5.489 -2.09,-2.89 -2.19,-6.972 -2.19,-10.156 v -28.398 h -9.46 v 43.339" /><path
         id="path104"
         style="fill:#231f20;fill-opacity:1;fill-rule:nonzero;stroke:none"
         d="m 1209.81,163.035 c 0.1,4.778 -0.79,14.75 -12.35,14.75 -6.07,0 -13.45,-3.683 -13.65,-14.75 z m -26.4,-6.57 c -0.2,-10.371 4.09,-18.035 14.35,-18.035 6.08,0 10.96,3.191 11.76,10.359 h 9.37 c -0.31,-2.488 -0.71,-6.582 -4.29,-10.469 -2.19,-2.48 -7.18,-6.668 -17.24,-6.668 -15.74,0 -23.21,9.766 -23.21,25.606 0,9.871 1.99,18.035 9.86,23.515 4.78,3.387 10.77,3.68 13.65,3.68 22.42,0 21.92,-19.824 21.72,-27.988 h -35.97" /><path
         id="path106"
         style="fill:#231f20;fill-opacity:1;fill-rule:nonzero;stroke:none"
         d="m 1236.63,172.996 c 0,3.391 -0.2,6.887 -0.5,10.168 h 9.47 l 0.2,-9.668 c 1.79,6.973 7.76,9.27 11.95,9.863 2.8,0.403 4.89,0.301 6.48,0.207 v -9.171 c -0.5,0.195 -1.1,0.293 -1.79,0.402 -0.7,0.098 -1.6,0.098 -2.69,0.098 -11.07,0 -13.66,-6.575 -13.66,-15.149 v -26.601 h -9.46 v 39.851" /></g></g></svg>